<svg width="24" height="24" viewBox="0 0 24 24" fill="none" xmlns="http://www.w3.org/2000/svg">
<mask id="mask0_810_115" style="mask-type:alpha" maskUnits="userSpaceOnUse" x="0" y="0" width="24" height="24">
<rect width="24" height="24" fill="#D9D9D9"/>
</mask>
<g mask="url(#mask0_810_115)">
<path d="M9.9502 5.54999H14.0502V3.54999H9.9502V5.54999ZM18.0002 23.7C16.4335 23.7 15.0919 23.1417 13.9752 22.025C12.8585 20.9083 12.3002 19.5667 12.3002 18C12.3002 16.4333 12.8585 15.0917 13.9752 13.975C15.0919 12.8583 16.4335 12.3 18.0002 12.3C19.5669 12.3 20.9085 12.8583 22.0252 13.975C23.1419 15.0917 23.7002 16.4333 23.7002 18C23.7002 19.5667 23.1419 20.9083 22.0252 22.025C20.9085 23.1417 19.5669 23.7 18.0002 23.7ZM3.8502 21.8C3.12153 21.8 2.4977 21.5405 1.9787 21.0215C1.4597 20.5027 1.2002 19.8788 1.2002 19.15V8.19999C1.2002 7.47133 1.4597 6.84749 1.9787 6.32849C2.4977 5.80949 3.12153 5.54999 3.8502 5.54999H7.3002V3.54999C7.3002 2.82133 7.5597 2.19749 8.0787 1.67849C8.59753 1.15949 9.22136 0.899994 9.9502 0.899994H14.0502C14.7789 0.899994 15.4027 1.15949 15.9217 1.67849C16.4407 2.19749 16.7002 2.82133 16.7002 3.54999V5.54999H20.1502C20.8789 5.54999 21.5027 5.80949 22.0217 6.32849C22.5407 6.84749 22.8002 7.47133 22.8002 8.19999V10.15C22.8002 10.55 22.6294 10.8417 22.2877 11.025C21.946 11.2083 21.5835 11.2083 21.2002 11.025C20.7169 10.775 20.2018 10.5917 19.6549 10.475C19.1081 10.3583 18.5565 10.3 18.0002 10.3C15.9002 10.3 14.0919 11.0375 12.5752 12.5125C11.0585 13.9875 10.3002 15.8167 10.3002 18C10.3002 18.3617 10.3294 18.7283 10.3877 19.1C10.446 19.4717 10.5335 19.8383 10.6502 20.2C10.7835 20.5833 10.7377 20.9458 10.5127 21.2875C10.2877 21.6292 9.98353 21.8 9.6002 21.8H3.8502ZM17.4502 19.075L15.9752 17.6C15.868 17.5 15.743 17.45 15.6002 17.45C15.4574 17.45 15.3324 17.5 15.2252 17.6C15.1252 17.7072 15.0752 17.8322 15.0752 17.975C15.0752 18.1178 15.1252 18.2428 15.2252 18.35L17.0752 20.2C17.3389 20.4667 17.6464 20.6 17.9979 20.6C18.3494 20.6 18.6585 20.4667 18.9252 20.2L20.7752 18.35C20.8752 18.2428 20.9252 18.1178 20.9252 17.975C20.9252 17.8322 20.8752 17.7072 20.7752 17.6C20.668 17.5 20.543 17.45 20.4002 17.45C20.2574 17.45 20.1324 17.5 20.0252 17.6L18.5502 19.075V15.425C18.5502 15.2783 18.4949 15.15 18.3842 15.04C18.2734 14.93 18.1442 14.875 17.9967 14.875C17.849 14.875 17.721 14.93 17.6127 15.04C17.5044 15.15 17.4502 15.2783 17.4502 15.425V19.075Z" fill="#1C1B1F"/>
</g>
</svg>
