<svg width="160" height="160" viewBox="0 0 160 160" fill="none" xmlns="http://www.w3.org/2000/svg">
<circle cx="80" cy="80" r="70" fill="#EEFF00"/>
<path fill-rule="evenodd" clip-rule="evenodd" d="M66.7388 10C71.4267 10.0001 75.8053 10.8166 79.6337 12.7417C79.6515 12.7506 79.6711 12.7597 79.6889 12.7687C81.3175 13.5772 82.8258 14.5306 84.2023 15.6292L84.9524 11.0593H126.436L124.224 24.3021H143.291L128.548 112.529C127.318 120.472 124.161 127.413 118.994 133.14C113.95 138.804 107.505 142.996 99.8506 145.803C92.2506 148.638 83.8351 150 74.6876 150C65.9742 150 58.2885 148.768 51.8711 146.021C45.5917 143.354 40.5271 139.469 37.161 134.166L37.154 134.154C37.0099 133.926 36.8707 133.696 36.7343 133.465C36.1522 133.247 35.5793 133.019 35.0166 132.779C28.7372 130.111 23.6725 126.226 20.3065 120.923L20.2994 120.911C16.9876 115.668 15.6898 109.712 16.2081 103.321L16.6572 97.788H33.7445C28.5719 94.2242 24.9939 88.991 22.8166 82.5759L22.8119 82.5606L22.806 82.5442C20.4282 75.4103 20.3597 66.6943 21.9948 56.8097C23.7141 46.4194 26.8055 37.5534 31.5131 30.4921C36.0416 23.6994 41.4503 18.4308 47.8303 15.0084C53.9288 11.7371 60.2534 10 66.7388 10ZM22.2076 103.808C21.7835 109.038 22.8443 113.668 25.3889 117.697C27.3232 120.744 30.0518 123.295 33.5752 125.348C32.9804 122.538 32.8164 119.6 33.0626 116.564L33.5117 111.031H50.5991C47.7841 109.091 45.4419 106.657 43.5403 103.808H22.2076ZM66.7388 16.0195C61.367 16.0195 56.012 17.4505 50.6755 20.3131L50.177 20.5858C45.0448 23.4585 40.4929 27.874 36.5215 33.831C32.4219 39.9804 29.5588 47.9677 27.9331 57.7926C26.3781 67.1932 26.5726 74.8094 28.5163 80.6407C30.4953 86.4718 33.676 90.7309 38.0581 93.4169L38.8952 93.9048C38.9732 93.9484 39.053 93.9889 39.1315 94.0317C37.2838 87.2407 37.346 79.1407 38.8493 70.0526C40.5686 59.6622 43.6601 50.7963 48.3676 43.735C52.8962 36.9422 58.3048 31.6737 64.6849 28.2513C70.694 25.0279 76.922 23.2942 83.3077 23.244C81.6872 21.1274 79.5744 19.4252 76.9696 18.1392C74.3523 16.8142 71.1907 16.1106 67.4865 16.0277L66.7388 16.0195ZM88.9862 23.6449C91.6525 24.0627 94.1713 24.8195 96.4882 25.9845C96.5061 25.9936 96.5256 26.0025 96.5435 26.0116C98.1722 26.8201 99.6803 27.7735 101.057 28.872L101.807 24.3021H118.12L119.327 17.0788H90.0643L88.9862 23.6449Z" fill="black"/>
<path d="M57.8321 130.739C49.6328 130.739 42.8119 129.572 37.3693 127.24C31.962 124.943 27.9684 121.762 25.3884 117.697C22.8438 113.669 21.7836 109.039 22.2077 103.808H50.4103C50.481 105.575 50.9935 106.989 51.9477 108.049C52.9019 109.109 54.2272 109.869 55.9236 110.329C57.62 110.788 59.5992 111.018 61.861 111.018C65.6779 111.018 68.9824 110.081 71.7744 108.208C74.5664 106.37 76.2804 103.066 76.9166 98.2949L79.2491 84.5117H78.4009C76.9166 87.2683 74.9198 89.6185 72.4105 91.5623C69.9013 93.4708 67.0209 94.9375 63.7695 95.9624C60.5181 96.9519 57.0546 97.4467 53.379 97.4467C47.583 97.4467 42.4761 96.1037 38.0584 93.4178C33.6761 90.7318 30.4953 86.4731 28.5162 80.6418C26.5724 74.8104 26.378 67.1943 27.933 57.7934C29.5588 47.9684 32.4214 39.9812 36.5211 33.8317C40.6207 27.6823 45.3388 23.1762 50.6754 20.3135C56.012 17.4509 61.3663 16.0195 66.7382 16.0195C70.7671 16.0195 74.1776 16.7264 76.9696 18.14C79.7616 19.5183 81.9881 21.3738 83.6492 23.7063C85.3102 26.0035 86.4588 28.5305 87.095 31.2871H87.7311L90.0637 17.0798H119.327L105.755 98.2949C104.695 105.222 101.991 111.089 97.6445 115.895C93.3328 120.737 87.7488 124.412 80.8925 126.922C74.0716 129.466 66.3848 130.739 57.8321 130.739ZM67.5864 76.6658C70.2724 76.6658 72.7109 75.9236 74.9021 74.4393C77.0933 72.9196 78.9487 70.7638 80.4684 67.9718C81.9881 65.1444 83.066 61.7516 83.7022 57.7934C84.3383 53.7644 84.3737 50.3186 83.8082 47.4559C83.2427 44.5579 82.1295 42.3491 80.4684 40.8294C78.8074 39.2743 76.6339 38.4968 73.9479 38.4968C71.2619 38.4968 68.841 39.2743 66.6852 40.8294C64.5293 42.3491 62.7092 44.5579 61.2249 47.4559C59.7405 50.3186 58.6803 53.7644 58.0441 57.7934C57.408 61.8223 57.355 65.2505 57.8851 68.0778C58.4152 70.8698 59.4932 73.008 61.1189 74.4923C62.7446 75.9413 64.9004 76.6658 67.5864 76.6658Z" fill="white"/>
</svg>
