<svg width="116" height="116" viewBox="0 0 116 116" fill="none" xmlns="http://www.w3.org/2000/svg">
<rect width="116" height="116" fill="#EEFF00"/>
<path fill-rule="evenodd" clip-rule="evenodd" d="M46.9598 0C50.844 7.45019e-05 54.472 0.67665 57.6441 2.27168C57.6589 2.27911 57.6751 2.28662 57.6898 2.29409C59.0393 2.96395 60.289 3.75397 61.4296 4.66416L62.051 0.877696H96.4234L94.5901 11.8504H110.389L98.173 84.9524C97.1539 91.534 94.5378 97.2853 90.2571 102.03C86.0778 106.723 80.7373 110.197 74.3953 112.522C68.0981 114.871 61.1252 116 53.5459 116C46.3263 116 39.9581 114.979 34.6408 112.704C29.4379 110.493 25.2415 107.274 22.4525 102.88L22.4466 102.871C22.3273 102.682 22.2119 102.491 22.0988 102.3C21.6166 102.119 21.1419 101.93 20.6756 101.731C15.4727 99.5205 11.2763 96.3012 8.48726 91.9077L8.48141 91.8979C5.73737 87.5532 4.66204 82.6186 5.09142 77.3229L5.46354 72.7387H19.6216C15.3357 69.7858 12.3711 65.4497 10.567 60.1343L10.5631 60.1217L10.5583 60.108C8.58808 54.1971 8.53137 46.9752 9.88612 38.7852C11.3107 30.1761 13.8722 22.83 17.7727 16.9792C21.5249 11.3509 26.0064 6.98555 31.2927 4.14982C36.3458 1.43933 41.5861 0 46.9598 0ZM10.0624 77.7262C9.71104 82.0601 10.5901 85.8964 12.6984 89.2347C14.3011 91.7593 16.5619 93.8726 19.4813 95.5743C18.9885 93.2459 18.8526 90.8116 19.0566 88.2956L19.4287 83.7113H33.5868C31.2544 82.1043 29.3138 80.0873 27.7381 77.7262H10.0624ZM46.9598 4.98757C42.5088 4.98757 38.0718 6.17326 33.6501 8.54511L33.2371 8.77111C28.9847 11.1513 25.2131 14.8099 21.9225 19.7457C18.5257 24.8409 16.1535 31.459 14.8065 39.5996C13.518 47.3887 13.6792 53.6992 15.2896 58.5309C16.9294 63.3624 19.5649 66.8913 23.1957 69.1168L23.8893 69.5211C23.954 69.5573 24.0201 69.5908 24.0851 69.6263C22.5542 63.9994 22.6057 57.288 23.8513 49.7578C25.2759 41.1487 27.8374 33.8027 31.7379 27.9518C35.4902 22.3235 39.9716 17.9582 45.2579 15.1225C50.2369 12.4517 55.3973 11.0152 60.6882 10.9736C59.3455 9.21983 57.595 7.80947 55.4367 6.74394C53.2681 5.64607 50.6485 5.06304 47.5793 4.99439L46.9598 4.98757ZM65.3933 11.3058C67.6025 11.652 69.6896 12.2791 71.6093 13.2443C71.6241 13.2518 71.6402 13.2592 71.655 13.2667C73.0046 13.9366 74.2541 14.7266 75.3948 15.6368L76.0163 11.8504H89.5324L90.5328 5.86527H66.2866L65.3933 11.3058Z" fill="black"/>
<path d="M39.5799 100.041C32.7862 100.041 27.1346 99.0748 22.625 97.1422C18.1447 95.2388 14.8357 92.6033 12.698 89.2357C10.5896 85.8975 9.71115 82.0614 10.0625 77.7275H33.4304C33.489 79.1916 33.9136 80.363 34.7043 81.2415C35.4949 82.1199 36.593 82.7495 37.9986 83.1302C39.4042 83.5109 41.0441 83.7012 42.9182 83.7012C46.0807 83.7012 48.8187 82.9252 51.1321 81.3732C53.4454 79.8505 54.8657 77.1125 55.3928 73.1593L57.3255 61.7389H56.6227C55.3928 64.023 53.7383 65.9703 51.6592 67.5809C49.5801 69.1622 47.1935 70.3774 44.4995 71.2266C41.8054 72.0466 38.9357 72.4565 35.8902 72.4565C31.0878 72.4565 26.8564 71.3438 23.196 69.1182C19.5649 66.8927 16.9294 63.3641 15.2896 58.5324C13.679 53.7007 13.5179 47.3902 14.8064 39.6009C16.1534 31.4602 18.5254 24.8422 21.9222 19.747C25.319 14.6517 29.2283 10.9181 33.6501 8.54617C38.0718 6.17424 42.5082 4.98828 46.9592 4.98828C50.2975 4.98828 53.1233 5.57394 55.4367 6.74526C57.7501 7.8873 59.5949 9.42466 60.9712 11.3573C62.3475 13.2608 63.2992 15.3545 63.8263 17.6386H64.3534L66.2861 5.86677H90.5325L79.2878 73.1593C78.4093 78.8988 76.1691 83.7598 72.5673 87.7423C68.9948 91.7541 64.368 94.7995 58.6871 96.8786C53.0355 98.987 46.6664 100.041 39.5799 100.041ZM47.662 55.2381C49.8875 55.2381 51.9081 54.6231 53.7236 53.3932C55.5392 52.1341 57.0765 50.3478 58.3357 48.0344C59.5949 45.6918 60.488 42.8806 61.0151 39.6009C61.5422 36.2626 61.5715 33.4075 61.103 31.0356C60.6344 28.6344 59.712 26.8042 58.3357 25.545C56.9594 24.2565 55.1585 23.6123 52.933 23.6123C50.7075 23.6123 48.7016 24.2565 46.9153 25.545C45.129 26.8042 43.621 28.6344 42.3911 31.0356C41.1612 33.4075 40.2827 36.2626 39.7556 39.6009C39.2285 42.9392 39.1846 45.7796 39.6238 48.1223C40.0631 50.4356 40.9562 52.2073 42.3032 53.4372C43.6502 54.6378 45.4365 55.2381 47.662 55.2381Z" fill="white"/>
</svg>
