<svg width="160" height="160" viewBox="0 0 160 160" fill="none" xmlns="http://www.w3.org/2000/svg">
<circle cx="80" cy="80" r="75" fill="#B3A8F7"/>
<path fill-rule="evenodd" clip-rule="evenodd" d="M66.7387 10C71.4266 10.0001 75.8052 10.8166 79.6336 12.7417C79.6514 12.7506 79.671 12.7597 79.6888 12.7687C81.3175 13.5772 82.8257 14.5306 84.2023 15.6292L84.9524 11.0593H126.436L124.224 24.3021H143.291L128.548 112.529C127.318 120.472 124.16 127.413 118.994 133.14C113.95 138.804 107.505 142.996 99.8506 145.803C92.2506 148.638 83.835 150 74.6875 150C65.9742 150 58.2885 148.768 51.8711 146.021C45.5916 143.354 40.527 139.469 37.161 134.166L37.1539 134.154C37.0099 133.926 36.8706 133.696 36.7342 133.465C36.1521 133.247 35.5792 133.019 35.0165 132.779C28.7372 130.111 23.6725 126.226 20.3064 120.923L20.2994 120.911C16.9876 115.668 15.6898 109.712 16.208 103.321L16.6571 97.788H33.7444C28.5718 94.2242 24.9938 88.991 22.8165 82.5759L22.8118 82.5606L22.8059 82.5442C20.4281 75.4103 20.3597 66.6943 21.9947 56.8097C23.714 46.4194 26.8055 37.5534 31.513 30.4921C36.0416 23.6994 41.4502 18.4308 47.8303 15.0084C53.9287 11.7371 60.2533 10 66.7387 10ZM22.2075 103.808C21.7834 109.038 22.8443 113.668 25.3889 117.697C27.3232 120.744 30.0517 123.295 33.5751 125.348C32.9803 122.538 32.8163 119.6 33.0625 116.564L33.5117 111.031H50.599C47.784 109.091 45.4419 106.657 43.5402 103.808H22.2075ZM66.7387 16.0195C61.3669 16.0195 56.0119 17.4505 50.6754 20.3131L50.1769 20.5858C45.0447 23.4585 40.4928 27.874 36.5214 33.831C32.4218 39.9804 29.5588 47.9677 27.9331 57.7926C26.3781 67.1932 26.5725 74.8094 28.5162 80.6407C30.4952 86.4718 33.6759 90.7309 38.058 93.4169L38.8951 93.9048C38.9732 93.9484 39.0529 93.9889 39.1314 94.0317C37.2837 87.2407 37.3459 79.1407 38.8492 70.0526C40.5686 59.6622 43.66 50.7963 48.3676 43.735C52.8961 36.9422 58.3047 31.6737 64.6848 28.2513C70.6939 25.0279 76.9219 23.2942 83.3076 23.244C81.6871 21.1274 79.5743 19.4252 76.9695 18.1392C74.3522 16.8142 71.1906 16.1106 67.4865 16.0277L66.7387 16.0195ZM88.9861 23.6449C91.6524 24.0627 94.1713 24.8195 96.4881 25.9845C96.5061 25.9936 96.5255 26.0025 96.5434 26.0116C98.1721 26.8201 99.6802 27.7735 101.057 28.872L101.807 24.3021H118.119L119.327 17.0788H90.0642L88.9861 23.6449Z" fill="black"/>
<path d="M57.832 130.739C49.6327 130.739 42.8118 129.572 37.3691 127.24C31.9619 124.943 27.9683 121.762 25.3883 117.697C22.8437 113.669 21.7835 109.039 22.2076 103.808H50.4102C50.4809 105.575 50.9934 106.989 51.9476 108.049C52.9018 109.109 54.2271 109.869 55.9235 110.329C57.6199 110.788 59.5991 111.018 61.8609 111.018C65.6778 111.018 68.9823 110.081 71.7743 108.208C74.5662 106.37 76.2803 103.066 76.9165 98.2949L79.249 84.5117H78.4008C76.9165 87.2683 74.9197 89.6185 72.4104 91.5623C69.9011 93.4708 67.0208 94.9375 63.7694 95.9624C60.5179 96.9519 57.0545 97.4467 53.3789 97.4467C47.5829 97.4467 42.476 96.1037 38.0583 93.4178C33.6759 90.7318 30.4952 86.4731 28.5161 80.6418C26.5723 74.8104 26.3779 67.1943 27.9329 57.7934C29.5586 47.9684 32.4213 39.9812 36.5209 33.8317C40.6206 27.6823 45.3387 23.1762 50.6753 20.3135C56.0119 17.4509 61.3661 16.0195 66.7381 16.0195C70.767 16.0195 74.1775 16.7264 76.9695 18.14C79.7615 19.5183 81.988 21.3738 83.6491 23.7063C85.3101 26.0035 86.4587 28.5305 87.0949 31.2871H87.731L90.0636 17.0798H119.326L105.755 98.2949C104.695 105.222 101.991 111.089 97.6443 115.895C93.3327 120.737 87.7487 124.412 80.8924 126.922C74.0715 129.466 66.3847 130.739 57.832 130.739ZM67.5863 76.6658C70.2722 76.6658 72.7108 75.9236 74.902 74.4393C77.0932 72.9196 78.9486 70.7638 80.4683 67.9718C81.988 65.1444 83.0659 61.7516 83.7021 57.7934C84.3382 53.7644 84.3736 50.3186 83.8081 47.4559C83.2426 44.5579 82.1294 42.3491 80.4683 40.8294C78.8072 39.2743 76.6337 38.4968 73.9478 38.4968C71.2618 38.4968 68.8409 39.2743 66.6851 40.8294C64.5292 42.3491 62.7091 44.5579 61.2248 47.4559C59.7404 50.3186 58.6802 53.7644 58.044 57.7934C57.4079 61.8223 57.3549 65.2505 57.885 68.0778C58.4151 70.8698 59.493 73.008 61.1187 74.4923C62.7445 75.9413 64.9003 76.6658 67.5863 76.6658Z" fill="white"/>
</svg>
