<svg width="24" height="24" viewBox="0 0 24 24" fill="none" xmlns="http://www.w3.org/2000/svg">
<mask id="mask0_738_1329" style="mask-type:alpha" maskUnits="userSpaceOnUse" x="0" y="0" width="24" height="24">
<rect width="24" height="24" fill="black"/>
</mask>
<g mask="url(#mask0_738_1329)">
<path d="M10.7002 13.35V16.075C10.7002 16.4417 10.8294 16.7542 11.0877 17.0125C11.346 17.2708 11.6585 17.4 12.0252 17.4C12.3919 17.4 12.7044 17.2708 12.9627 17.0125C13.221 16.7542 13.3502 16.4417 13.3502 16.075V13.35H16.0752C16.4419 13.35 16.7544 13.2208 17.0127 12.9625C17.271 12.7042 17.4002 12.3917 17.4002 12.025C17.4002 11.6583 17.271 11.3458 17.0127 11.0875C16.7544 10.8292 16.4419 10.7 16.0752 10.7H13.3502V7.925C13.3502 7.55833 13.221 7.24583 12.9627 6.9875C12.7044 6.72916 12.3919 6.6 12.0252 6.6C11.6585 6.6 11.346 6.72916 11.0877 6.9875C10.8294 7.24583 10.7002 7.55833 10.7002 7.925V10.7H7.9252C7.55853 10.7 7.24603 10.8292 6.9877 11.0875C6.72936 11.3458 6.6002 11.6583 6.6002 12.025C6.6002 12.3917 6.72936 12.7042 6.9877 12.9625C7.24603 13.2208 7.55853 13.35 7.9252 13.35H10.7002ZM12.0002 22.8C10.5062 22.8 9.1022 22.5165 7.7882 21.9495C6.4742 21.3825 5.3312 20.613 4.3592 19.641C3.3872 18.669 2.6177 17.526 2.0507 16.212C1.4837 14.898 1.2002 13.494 1.2002 12C1.2002 10.5017 1.4842 9.09366 2.0522 7.776C2.6202 6.45816 3.39103 5.31191 4.3647 4.33725C5.33836 3.36241 6.48136 2.59583 7.79369 2.0375C9.10603 1.47916 10.5082 1.2 12.0002 1.2C13.4984 1.2 14.9062 1.47916 16.2237 2.0375C17.5414 2.59583 18.6877 3.3625 19.6627 4.3375C20.6377 5.3125 21.4044 6.459 21.9627 7.777C22.521 9.09516 22.8002 10.5035 22.8002 12.002C22.8002 13.5007 22.521 14.9042 21.9627 16.2125C21.4044 17.5208 20.6378 18.6618 19.6629 19.6355C18.6883 20.6092 17.542 21.38 16.2242 21.948C14.9065 22.516 13.4985 22.8 12.0002 22.8Z" fill="black"/>
</g>
</svg>
