<svg width="24" height="24" viewBox="0 0 24 24" fill="none" xmlns="http://www.w3.org/2000/svg">
<mask id="mask0_856_69" style="mask-type:alpha" maskUnits="userSpaceOnUse" x="0" y="0" width="24" height="24">
<rect width="24" height="24" fill="black"/>
</mask>
<g mask="url(#mask0_856_69)">
<path d="M12.0748 20.45C9.84147 20.45 7.90814 19.7042 6.2748 18.2125C4.64147 16.7208 3.73314 14.8667 3.5498 12.65V12.525L3.1748 12.9C2.90814 13.1667 2.5998 13.2958 2.2498 13.2875C1.8998 13.2792 1.59147 13.1417 1.3248 12.875C1.05814 12.6083 0.924805 12.2958 0.924805 11.9375C0.924805 11.5792 1.05814 11.2667 1.3248 11L3.9498 8.37501C4.21647 8.10835 4.5248 7.97501 4.8748 7.97501C5.2248 7.97501 5.53314 8.10835 5.7998 8.37501L8.4748 11.05C8.7248 11.3 8.8498 11.6 8.8498 11.95C8.8498 12.3 8.7248 12.6083 8.4748 12.875C8.2248 13.1417 7.91647 13.275 7.5498 13.275C7.18314 13.275 6.86647 13.1417 6.5998 12.875L6.2248 12.5V12.625C6.35814 14.0417 6.9748 15.2583 8.0748 16.275C9.1748 17.2917 10.5081 17.8 12.0748 17.8C12.3081 17.8 12.5373 17.7833 12.7623 17.75C12.9873 17.7167 13.2081 17.675 13.4248 17.625C13.7915 17.5417 14.1498 17.5542 14.4998 17.6625C14.8498 17.7708 15.1165 17.9917 15.2998 18.325C15.4831 18.6583 15.5123 18.9958 15.3873 19.3375C15.2623 19.6792 15.0248 19.9083 14.6748 20.025C14.2581 20.1583 13.8331 20.2625 13.3998 20.3375C12.9665 20.4125 12.5248 20.45 12.0748 20.45ZM11.9248 6.10001C11.6915 6.10001 11.4623 6.11251 11.2373 6.13751C11.0123 6.16251 10.7831 6.20835 10.5498 6.27501C10.1831 6.35835 9.8248 6.34585 9.4748 6.23751C9.1248 6.12918 8.85814 5.90835 8.6748 5.57501C8.49147 5.24168 8.4623 4.90835 8.5873 4.57501C8.7123 4.24168 8.94147 4.01668 9.27481 3.90001C9.70814 3.75001 10.1415 3.63751 10.5748 3.56251C11.0081 3.48751 11.4581 3.45001 11.9248 3.45001C14.1581 3.45001 16.0915 4.19585 17.7248 5.68751C19.3581 7.17918 20.2665 9.03335 20.4498 11.25V11.375L20.8248 11C21.0915 10.7333 21.3998 10.6042 21.7498 10.6125C22.0998 10.6208 22.4081 10.7583 22.6748 11.025C22.9415 11.2917 23.0748 11.6042 23.0748 11.9625C23.0748 12.3208 22.9415 12.6333 22.6748 12.9L20.0498 15.525C19.7831 15.7917 19.4748 15.925 19.1248 15.925C18.7748 15.925 18.4665 15.7917 18.1998 15.525L15.5248 12.85C15.2748 12.6 15.1498 12.3 15.1498 11.95C15.1498 11.6 15.2748 11.2917 15.5248 11.025C15.7748 10.7583 16.0831 10.625 16.4498 10.625C16.8165 10.625 17.1331 10.7583 17.3998 11.025L17.7748 11.4V11.275C17.6415 9.85835 17.0248 8.64168 15.9248 7.62501C14.8248 6.60835 13.4915 6.10001 11.9248 6.10001Z" fill="black"/>
</g>
</svg>
