<svg width="24" height="24" viewBox="0 0 24 24" fill="none" xmlns="http://www.w3.org/2000/svg">
<mask id="mask0_857_252" style="mask-type:alpha" maskUnits="userSpaceOnUse" x="0" y="0" width="24" height="24">
<rect width="24" height="24" fill="#D9D9D9"/>
</mask>
<g mask="url(#mask0_857_252)">
<path d="M10.9998 22.325C8.41647 22.325 6.21647 21.4167 4.3998 19.6C2.58314 17.7833 1.6748 15.5833 1.6748 13C1.6748 10.5167 2.51647 8.37501 4.1998 6.57501C5.88314 4.77501 7.96647 3.81667 10.4498 3.70001L10.0748 3.32501C9.82481 3.07501 9.69981 2.76667 9.69981 2.40001C9.69981 2.03334 9.82481 1.72501 10.0748 1.47501C10.3248 1.22501 10.6331 1.10001 10.9998 1.10001C11.3665 1.10001 11.6748 1.22501 11.9248 1.47501L14.5248 4.07501C14.6581 4.20834 14.754 4.35001 14.8123 4.50001C14.8706 4.65001 14.8998 4.81667 14.8998 5.00001C14.8998 5.18334 14.8706 5.35001 14.8123 5.50001C14.754 5.65001 14.6581 5.79167 14.5248 5.92501L11.9248 8.52501C11.6748 8.77501 11.3665 8.90001 10.9998 8.90001C10.6331 8.90001 10.3248 8.77501 10.0748 8.52501C9.82481 8.27501 9.69981 7.96667 9.69981 7.60001C9.69981 7.23334 9.82481 6.92501 10.0748 6.67501L10.3998 6.35001C8.68314 6.53334 7.24147 7.25417 6.0748 8.51251C4.90814 9.77084 4.3248 11.2667 4.3248 13C4.3248 14.85 4.9748 16.425 6.2748 17.725C7.5748 19.025 9.1498 19.675 10.9998 19.675C11.3498 19.675 11.6956 19.6458 12.0373 19.5875C12.379 19.5292 12.7165 19.45 13.0498 19.35C13.3831 19.2333 13.7123 19.2625 14.0373 19.4375C14.3623 19.6125 14.5831 19.8667 14.6998 20.2C14.8165 20.5333 14.804 20.8583 14.6623 21.175C14.5206 21.4917 14.2831 21.7083 13.9498 21.825C13.4665 21.975 12.979 22.0958 12.4873 22.1875C11.9956 22.2792 11.4998 22.325 10.9998 22.325ZM16.0248 19.175L10.8748 14.025C10.7415 13.8917 10.6456 13.75 10.5873 13.6C10.529 13.45 10.4998 13.2833 10.4998 13.1C10.4998 12.9167 10.529 12.75 10.5873 12.6C10.6456 12.45 10.7415 12.3083 10.8748 12.175L16.0248 7.02501C16.1581 6.89167 16.2998 6.79584 16.4498 6.73751C16.5998 6.67917 16.7665 6.65001 16.9498 6.65001C17.1331 6.65001 17.2998 6.67917 17.4498 6.73751C17.5998 6.79584 17.7415 6.89167 17.8748 7.02501L23.0248 12.175C23.1581 12.3083 23.254 12.45 23.3123 12.6C23.3706 12.75 23.3998 12.9167 23.3998 13.1C23.3998 13.2833 23.3706 13.45 23.3123 13.6C23.254 13.75 23.1581 13.8917 23.0248 14.025L17.8748 19.175C17.7415 19.3083 17.5998 19.4042 17.4498 19.4625C17.2998 19.5208 17.1331 19.55 16.9498 19.55C16.7665 19.55 16.5998 19.5208 16.4498 19.4625C16.2998 19.4042 16.1581 19.3083 16.0248 19.175Z" fill="#1C1B1F"/>
</g>
</svg>
