<svg width="24" height="24" viewBox="0 0 24 24" fill="none" xmlns="http://www.w3.org/2000/svg">
<mask id="mask0_856_186" style="mask-type:alpha" maskUnits="userSpaceOnUse" x="0" y="0" width="24" height="24">
<rect width="24" height="24" fill="#D9D9D9"/>
</mask>
<g mask="url(#mask0_856_186)">
<path d="M15.2748 20.8C14.9415 20.8 14.6665 20.6875 14.4498 20.4625C14.2331 20.2375 14.1248 19.9583 14.1248 19.625C14.1248 19.2917 14.2373 19.0167 14.4623 18.8C14.6873 18.5833 14.9665 18.475 15.2998 18.475H16.8748L14.2998 15.9C14.0665 15.6667 13.954 15.4 13.9623 15.1C13.9706 14.8 14.0915 14.5333 14.3248 14.3C14.5581 14.0667 14.8248 13.95 15.1248 13.95C15.4248 13.95 15.6915 14.0667 15.9248 14.3L18.4748 16.85V15.25C18.4748 14.9167 18.5873 14.6417 18.8123 14.425C19.0373 14.2083 19.3165 14.1 19.6498 14.1C19.9831 14.1 20.2581 14.2083 20.4748 14.425C20.6915 14.6417 20.7998 14.9167 20.7998 15.25V19.475C20.7998 19.8417 20.6706 20.1542 20.4123 20.4125C20.154 20.6708 19.8415 20.8 19.4748 20.8H15.2748ZM3.5248 20.475C3.29147 20.2417 3.1748 19.975 3.1748 19.675C3.1748 19.375 3.29147 19.1083 3.5248 18.875L16.8748 5.52499H15.2748C14.9415 5.52499 14.6665 5.41249 14.4498 5.18749C14.2331 4.96249 14.1248 4.68332 14.1248 4.34999C14.1248 4.01665 14.2373 3.74165 14.4623 3.52499C14.6873 3.30832 14.9665 3.19999 15.2998 3.19999H19.4748C19.8415 3.19999 20.154 3.32915 20.4123 3.58749C20.6706 3.84582 20.7998 4.15832 20.7998 4.52499V8.72499C20.7998 9.05832 20.6915 9.33332 20.4748 9.54999C20.2581 9.76665 19.9831 9.87499 19.6498 9.87499C19.3165 9.87499 19.0373 9.76249 18.8123 9.53749C18.5873 9.31249 18.4748 9.03332 18.4748 8.69999V7.12499L5.1248 20.475C4.89147 20.7083 4.6248 20.825 4.3248 20.825C4.0248 20.825 3.75814 20.7083 3.5248 20.475ZM3.5248 5.12499C3.29147 4.89165 3.1748 4.62499 3.1748 4.32499C3.1748 4.02499 3.29147 3.75832 3.5248 3.52499C3.75814 3.29165 4.0248 3.17499 4.3248 3.17499C4.6248 3.17499 4.89147 3.29165 5.1248 3.52499L9.6998 8.09999C9.93314 8.33332 10.0498 8.59999 10.0498 8.89999C10.0498 9.19999 9.93314 9.46665 9.6998 9.69999C9.46647 9.93332 9.1998 10.05 8.8998 10.05C8.5998 10.05 8.33314 9.93332 8.0998 9.69999L3.5248 5.12499Z" fill="#1C1B1F"/>
</g>
</svg>
