<svg width="24" height="24" viewBox="0 0 24 24" fill="none" xmlns="http://www.w3.org/2000/svg">
<mask id="mask0_856_213" style="mask-type:alpha" maskUnits="userSpaceOnUse" x="0" y="0" width="24" height="24">
<rect width="24" height="24" fill="#D9D9D9"/>
</mask>
<g mask="url(#mask0_856_213)">
<path d="M2.3749 20C2.00824 20 1.6999 19.8667 1.4499 19.6C1.1999 19.3333 1.0749 18.9583 1.0749 18.475C1.0749 18.175 1.18324 17.9167 1.3999 17.7C1.61657 17.4833 1.8749 17.375 2.1749 17.375C1.50824 16.6417 0.983236 15.8208 0.599902 14.9125C0.216569 14.0042 0.0249023 13.05 0.0249023 12.05C0.0249023 10.4333 0.470736 8.975 1.3624 7.675C2.25407 6.375 3.41657 5.41667 4.8499 4.8C5.18324 4.65 5.5124 4.65833 5.8374 4.825C6.1624 4.99167 6.3749 5.25833 6.4749 5.625C6.5749 5.975 6.54157 6.3125 6.3749 6.6375C6.20824 6.9625 5.95824 7.21667 5.6249 7.4C4.74157 7.86667 4.02907 8.50833 3.4874 9.325C2.94574 10.1417 2.6749 11.05 2.6749 12.05C2.6749 12.7333 2.81657 13.375 3.0999 13.975C3.38324 14.575 3.7499 15.125 4.1999 15.625V15.5C4.1999 15.1333 4.32907 14.825 4.5874 14.575C4.84574 14.325 5.15824 14.2 5.5249 14.2C5.89157 14.2 6.1999 14.325 6.4499 14.575C6.6999 14.825 6.8249 15.1333 6.8249 15.5V18.675C6.8249 19.0417 6.69574 19.3542 6.4374 19.6125C6.17907 19.8708 5.86657 20 5.4999 20H2.3749ZM10.4749 19.325C10.1916 19.4417 9.91657 19.3917 9.6499 19.175C9.38324 18.9583 9.20824 18.6833 9.1249 18.35C9.04157 18.0167 9.0624 17.6958 9.1874 17.3875C9.3124 17.0792 9.5249 16.8583 9.8249 16.725C10.7749 16.2917 11.5416 15.6625 12.1249 14.8375C12.7082 14.0125 12.9999 13.075 12.9999 12.025C12.9999 11.325 12.8666 10.6583 12.5999 10.025C12.3332 9.39167 11.9582 8.83333 11.4749 8.35V8.55C11.4749 8.91667 11.3499 9.225 11.0999 9.475C10.8499 9.725 10.5416 9.85 10.1749 9.85C9.80824 9.85 9.49574 9.72083 9.2374 9.4625C8.97907 9.20417 8.8499 8.89167 8.8499 8.525V5.35C8.8499 4.98333 8.97907 4.67083 9.2374 4.4125C9.49574 4.15417 9.80824 4.025 10.1749 4.025H13.2999C13.6666 4.025 13.9749 4.1625 14.2249 4.4375C14.4749 4.7125 14.5999 5.08333 14.5999 5.55C14.5999 5.85 14.4916 6.10833 14.2749 6.325C14.0582 6.54167 13.7999 6.65 13.4999 6.65C14.1999 7.38333 14.7332 8.2125 15.0999 9.1375C15.4666 10.0625 15.6499 11.025 15.6499 12.025C15.6499 13.6917 15.1707 15.1833 14.2124 16.5C13.2541 17.8167 12.0082 18.7583 10.4749 19.325ZM18.6499 8.225L18.2499 8.625C17.9832 8.89167 17.6749 9.025 17.3249 9.025C16.9749 9.025 16.6666 8.89167 16.3999 8.625C16.1332 8.35833 15.9999 8.04583 15.9999 7.6875C15.9999 7.32917 16.1332 7.01667 16.3999 6.75L18.9999 4.15C19.2666 3.88333 19.5749 3.75 19.9249 3.75C20.2749 3.75 20.5832 3.88333 20.8499 4.15L23.4999 6.775C23.7499 7.025 23.8749 7.32917 23.8749 7.6875C23.8749 8.04583 23.7499 8.35 23.4999 8.6C23.2499 8.85 22.9457 8.975 22.5874 8.975C22.2291 8.975 21.9249 8.85 21.6749 8.6L21.2749 8.2V19.5C21.2749 19.8667 21.1499 20.175 20.8999 20.425C20.6499 20.675 20.3416 20.8 19.9749 20.8C19.6082 20.8 19.2957 20.6708 19.0374 20.4125C18.7791 20.1542 18.6499 19.8417 18.6499 19.475V8.225Z" fill="#1C1B1F"/>
</g>
</svg>
