<svg width="316" height="72" viewBox="0 0 316 72" fill="none" xmlns="http://www.w3.org/2000/svg">
<g clip-path="url(#clip0_290_2858)">
<mask id="mask0_290_2858" style="mask-type:luminance" maskUnits="userSpaceOnUse" x="0" y="0" width="316" height="72">
<path d="M315.284 0H0V72H315.284V0Z" fill="white"/>
</mask>
<g mask="url(#mask0_290_2858)">
<path d="M31.5581 52.5864C21.9838 51.4258 15.2382 44.5352 15.2382 35.6136C15.2382 31.987 16.5438 28.0702 18.7198 25.459C17.7769 23.0655 17.9219 17.9882 19.0099 15.8847C21.9112 15.5221 25.828 17.0452 28.1491 19.1487C30.9053 18.2783 33.8066 17.8431 37.3608 17.8431C40.9148 17.8431 43.8161 18.2783 46.4273 19.0761C48.6758 17.0452 52.6652 15.5221 55.5665 15.8847C56.582 17.8431 56.727 22.9204 55.7841 25.3865C58.1051 28.1428 59.3382 31.842 59.3382 35.6136C59.3382 44.5352 52.5926 51.2808 42.8732 52.5138C45.3394 54.1095 47.0076 57.5911 47.0076 61.5805V69.1239C47.0076 71.2999 48.8209 72.5329 50.9969 71.6625C64.1254 66.6578 74.4251 53.5293 74.4251 37.2819C74.4251 16.7551 57.7425 1.80863e-07 37.2156 0C16.6889 -1.80863e-07 0.151367 16.7551 0.151367 37.2819C0.151367 53.3842 10.3785 66.7303 24.1598 71.735C26.1182 72.4603 28.004 71.1548 28.004 69.1964V63.3937C26.9885 63.829 25.683 64.1191 24.5224 64.1191C19.7353 64.1191 16.9065 61.5079 14.8756 56.6482C14.0777 54.6898 13.2073 53.5293 11.539 53.3117C10.6686 53.2391 10.3785 52.8765 10.3785 52.4413C10.3785 51.5709 11.8292 50.9181 13.2798 50.9181C15.3833 50.9181 17.1966 52.2237 19.0825 54.9074C20.5331 57.0109 22.0563 57.9538 23.8696 57.9538C25.683 57.9538 26.8435 57.301 28.5117 55.6327C29.7448 54.3996 30.6877 53.3117 31.5581 52.5864Z" fill="black"/>
<mask id="mask1_290_2858" style="mask-type:luminance" maskUnits="userSpaceOnUse" x="88" y="7" width="227" height="58">
<path d="M314.718 7.19434H88.8135V64.7495H314.718V7.19434Z" fill="white"/>
</mask>
<g mask="url(#mask1_290_2858)">
<path d="M143.194 62.9087V25.2248H153.788V62.9087H143.194ZM174.328 62.9087C167.287 62.9087 164.538 59.8913 164.538 53.5212V34.0758H157.833V25.2248H164.538V17.7148L175.132 15.2338V25.2248H182.977V34.0758H175.132V51.1743C175.132 53.253 176.071 54.0577 178.15 54.0577H182.977V62.9087H174.328ZM248.187 63.5792C239.94 63.5792 235.447 59.0196 235.447 50.705V25.2248H246.109V47.8888C246.109 52.5154 248.187 55.0635 252.144 55.0635C256.703 55.0635 260.19 50.8391 260.19 45.0725V25.2248H270.851V62.9087H260.19V56.5386C258.179 60.6288 253.351 63.5792 248.187 63.5792ZM299.075 63.5792C293.935 63.5792 289.242 60.6288 287.004 56.4045V62.9087H276.411V10.339H287.072V32.1312C289.242 27.5716 294.137 24.353 299.075 24.353C309.358 24.353 314.79 31.4607 314.43 43.9996C314.79 56.4045 309.157 63.5792 299.075 63.5792ZM295.319 54.6611C300.842 54.6611 303.859 50.5709 303.5 43.9996C303.859 37.3614 300.842 33.2711 295.319 33.2711C290.918 33.2711 287.432 37.5625 287.072 43.4632V44.0667C287.432 50.1685 290.918 54.6611 295.319 54.6611ZM218.83 10.339V31.6619H198.848V10.339H187.449V62.9087H198.848V41.854H218.83V62.9087H230.229V10.339H218.83ZM114.16 63.9145C98.6032 63.9145 88.8135 53.253 88.8135 36.5567C88.8135 19.8605 98.8048 9.33316 114.629 9.33316C127.503 9.33316 135.282 14.8315 137.762 24.0848L126.229 26.834C124.821 21.805 120.798 19.0558 114.629 19.0558C105.442 19.0558 100.481 25.0906 100.481 36.5567C100.481 48.0229 105.308 54.1917 114.361 54.1917C122.675 54.1917 127.637 49.0957 127.637 40.4458V38.4343L130.588 42.5245H113.422V32.8688H139.17V38.9706C139.17 54.9964 129.85 63.9145 114.16 63.9145ZM148.491 21.6709C152.045 21.6709 154.794 18.9217 154.794 15.3679C154.794 11.8141 152.045 9.06494 148.491 9.06494C144.937 9.06494 142.188 11.8141 142.188 15.3679C142.188 18.9217 144.937 21.6709 148.491 21.6709Z" fill="black"/>
</g>
</g>
</g>
<defs>
<clipPath id="clip0_290_2858">
<rect width="315.284" height="72" fill="white"/>
</clipPath>
</defs>
</svg>
